<svg width="400" height="400" viewBox="0 0 200 200" xmlns="http://www.w3.org/2000/svg">
  <defs>
    <linearGradient id="g10a" x1="0%" y1="0%" x2="100%" y2="100%">
      <stop offset="0%" stop-color="#00E5FF"/><stop offset="100%" stop-color="#1565C0"/>
    </linearGradient>
    <linearGradient id="g10b" x1="0%" y1="0%" x2="0%" y2="100%">
      <stop offset="0%" stop-color="#40C8FF"/><stop offset="100%" stop-color="#0D47A1"/>
    </linearGradient>
  </defs>
  <rect width="200" height="200" fill="#060B14" rx="12"/>
  <rect x="52" y="40" width="24" height="24" rx="5" fill="url(#g10a)" opacity="1"/>
  <rect x="80" y="40" width="24" height="24" rx="5" fill="url(#g10a)" opacity="0.9"/>
  <rect x="108" y="40" width="24" height="24" rx="5" fill="url(#g10a)" opacity="0.8"/>
  <rect x="132" y="40" width="24" height="24" rx="5" fill="url(#g10a)" opacity="0.6"/>
  <rect x="52" y="68" width="24" height="24" rx="5" fill="url(#g10b)" opacity="0.95"/>
  <rect x="132" y="68" width="24" height="24" rx="5" fill="url(#g10b)" opacity="0.65"/>
  <rect x="52" y="96" width="24" height="24" rx="5" fill="url(#g10b)" opacity="0.9"/>
  <rect x="80" y="96" width="24" height="24" rx="5" fill="url(#g10b)" opacity="0.75"/>
  <rect x="108" y="96" width="24" height="24" rx="5" fill="url(#g10b)" opacity="0.65"/>
  <rect x="52" y="124" width="24" height="24" rx="5" fill="url(#g10a)" opacity="0.7"/>
  <rect x="132" y="124" width="24" height="24" rx="5" fill="url(#g10a)" opacity="0.5"/>
  <rect x="52" y="152" width="24" height="24" rx="5" fill="url(#g10b)" opacity="0.55"/>
  <rect x="80" y="152" width="24" height="24" rx="5" fill="url(#g10b)" opacity="0.5"/>
  <rect x="108" y="152" width="24" height="24" rx="5" fill="url(#g10b)" opacity="0.45"/>
  <rect x="132" y="152" width="24" height="24" rx="5" fill="url(#g10b)" opacity="0.4"/>
</svg>
