<svg width="400" height="400" viewBox="0 0 200 200" xmlns="http://www.w3.org/2000/svg">
  <defs>
    <linearGradient id="g4" x1="0%" y1="0%" x2="100%" y2="100%">
      <stop offset="0%" stop-color="#00E5FF"/>
      <stop offset="50%" stop-color="#2979FF"/>
      <stop offset="100%" stop-color="#651FFF"/>
    </linearGradient>
    <linearGradient id="g4b" x1="100%" y1="0%" x2="0%" y2="100%">
      <stop offset="0%" stop-color="#00B8D4"/>
      <stop offset="100%" stop-color="#1565C0"/>
    </linearGradient>
  </defs>
  <rect width="200" height="200" fill="#060B14" rx="12"/>
  <!-- Outer sweeping arc -->
  <path d="M 50 55 C 50 28, 80 20, 110 25 C 150 30, 170 60, 168 100 C 165 145, 130 170, 90 165 C 58 160, 42 138, 42 115" fill="none" stroke="url(#g4)" stroke-width="5" stroke-linecap="round"/>
  <!-- Inner accent stroke -->
  <path d="M 50 65 C 50 42, 78 36, 105 40 C 140 44, 158 70, 156 105 C 154 138, 126 158, 92 154 C 66 150, 52 132, 52 113" fill="none" stroke="url(#g4b)" stroke-width="2.5" stroke-linecap="round" opacity="0.6"/>
  <!-- Accent dot -->
  <circle cx="148" cy="42" r="4" fill="#00E5FF" opacity="0.8"/>
</svg>
